<mxfile host="Electron" agent="Mozilla/5.0 (Windows NT 10.0; Win64; x64) AppleWebKit/537.36 (KHTML, like Gecko) draw.io/27.0.5 Chrome/134.0.6998.205 Electron/35.3.0 Safari/537.36" version="27.0.5">
  <diagram name="Страница — 1" id="_c2zIHPguvPGuPpQHwTz">
    <mxGraphModel dx="1611" dy="1716" grid="1" gridSize="10" guides="1" tooltips="1" connect="1" arrows="1" fold="1" page="1" pageScale="1" pageWidth="1169" pageHeight="827" math="0" shadow="0">
      <root>
        <mxCell id="0" />
        <mxCell id="1" parent="0" />
        <mxCell id="jhh1zoFwaYAyAGupVXI--33" value="" style="rounded=0;whiteSpace=wrap;html=1;dashed=1;dashPattern=12 12;" vertex="1" parent="1">
          <mxGeometry x="80" y="110" width="760" height="500" as="geometry" />
        </mxCell>
        <mxCell id="jhh1zoFwaYAyAGupVXI--11" value="" style="rounded=1;whiteSpace=wrap;html=1;" vertex="1" parent="1">
          <mxGeometry x="100" y="152.5" width="190" height="437.5" as="geometry" />
        </mxCell>
        <mxCell id="jhh1zoFwaYAyAGupVXI--62" style="edgeStyle=orthogonalEdgeStyle;rounded=0;orthogonalLoop=1;jettySize=auto;html=1;exitX=1.008;exitY=0.394;exitDx=0;exitDy=0;entryX=0;entryY=0.5;entryDx=0;entryDy=0;exitPerimeter=0;" edge="1" parent="1" source="jhh1zoFwaYAyAGupVXI--14" target="jhh1zoFwaYAyAGupVXI--65">
          <mxGeometry relative="1" as="geometry">
            <mxPoint x="460" y="365.25" as="sourcePoint" />
          </mxGeometry>
        </mxCell>
        <mxCell id="jhh1zoFwaYAyAGupVXI--12" value="База данных анонимайзера" style="shape=datastore;whiteSpace=wrap;html=1;" vertex="1" parent="1">
          <mxGeometry x="130" y="490" width="120" height="80" as="geometry" />
        </mxCell>
        <mxCell id="jhh1zoFwaYAyAGupVXI--74" style="edgeStyle=orthogonalEdgeStyle;rounded=0;orthogonalLoop=1;jettySize=auto;html=1;exitX=1;exitY=0.883;exitDx=0;exitDy=0;entryX=0;entryY=0.5;entryDx=0;entryDy=0;exitPerimeter=0;" edge="1" parent="1" source="jhh1zoFwaYAyAGupVXI--14" target="jhh1zoFwaYAyAGupVXI--75">
          <mxGeometry relative="1" as="geometry" />
        </mxCell>
        <mxCell id="jhh1zoFwaYAyAGupVXI--14" value="Сервис анонимизации и восстановления" style="rounded=0;whiteSpace=wrap;html=1;" vertex="1" parent="1">
          <mxGeometry x="130" y="220" width="120" height="180" as="geometry" />
        </mxCell>
        <mxCell id="jhh1zoFwaYAyAGupVXI--15" value="&lt;font style=&quot;font-size: 18px;&quot;&gt;LLM&amp;nbsp;&lt;/font&gt;&lt;div&gt;&lt;font style=&quot;font-size: 18px;&quot;&gt;провайдер&lt;/font&gt;&lt;/div&gt;" style="rounded=1;whiteSpace=wrap;html=1;" vertex="1" parent="1">
          <mxGeometry x="1000" y="150" width="140" height="400" as="geometry" />
        </mxCell>
        <mxCell id="jhh1zoFwaYAyAGupVXI--18" value="" style="shape=flexArrow;endArrow=classic;startArrow=classic;html=1;rounded=0;entryX=0.5;entryY=1;entryDx=0;entryDy=0;" edge="1" parent="1" source="jhh1zoFwaYAyAGupVXI--12" target="jhh1zoFwaYAyAGupVXI--14">
          <mxGeometry width="100" height="100" relative="1" as="geometry">
            <mxPoint x="590" y="510" as="sourcePoint" />
            <mxPoint x="690" y="410" as="targetPoint" />
          </mxGeometry>
        </mxCell>
        <mxCell id="jhh1zoFwaYAyAGupVXI--28" value="&lt;font style=&quot;font-size: 18px;&quot;&gt;Анонимайзер&lt;/font&gt;" style="text;html=1;align=center;verticalAlign=middle;whiteSpace=wrap;rounded=0;" vertex="1" parent="1">
          <mxGeometry x="132.5" y="170" width="115" height="30" as="geometry" />
        </mxCell>
        <mxCell id="jhh1zoFwaYAyAGupVXI--37" value="&lt;span style=&quot;font-size: 18px;&quot;&gt;VDS (Prived cloud)&lt;/span&gt;" style="text;html=1;align=center;verticalAlign=middle;whiteSpace=wrap;rounded=0;" vertex="1" parent="1">
          <mxGeometry x="360" y="110" width="180" height="30" as="geometry" />
        </mxCell>
        <mxCell id="jhh1zoFwaYAyAGupVXI--45" value="API" style="text;html=1;align=center;verticalAlign=middle;whiteSpace=wrap;rounded=0;" vertex="1" parent="1">
          <mxGeometry x="950" y="280" width="60" height="30" as="geometry" />
        </mxCell>
        <mxCell id="jhh1zoFwaYAyAGupVXI--48" value="&lt;div&gt;&lt;br&gt;&lt;/div&gt;&lt;div style=&quot;text-align: center;&quot;&gt;&lt;font style=&quot;font-size: 18px;&quot;&gt;Система находится на том же VDS (или в том же облаке), что и SMAILP.&amp;nbsp;&lt;/font&gt;&lt;/div&gt;&lt;div style=&quot;text-align: center;&quot;&gt;&lt;font style=&quot;font-size: 18px;&quot;&gt;Коммуникации между ней и SMAILP происходят внутри одной VDS или по локальной (приватной) сети провайдера. Коммуникации с LLM происходят по API через общедоступные сети.&lt;/font&gt;&lt;/div&gt;&lt;div style=&quot;text-align: center;&quot;&gt;&lt;span style=&quot;background-color: transparent; color: light-dark(rgb(0, 0, 0), rgb(255, 255, 255));&quot;&gt;&lt;font size=&quot;3&quot;&gt;&amp;nbsp;&amp;nbsp;&lt;/font&gt;&lt;/span&gt;&lt;/div&gt;" style="text;html=1;align=left;verticalAlign=middle;whiteSpace=wrap;rounded=0;" vertex="1" parent="1">
          <mxGeometry x="100" width="1000" height="80" as="geometry" />
        </mxCell>
        <mxCell id="jhh1zoFwaYAyAGupVXI--49" value="&lt;div&gt;&lt;ul&gt;&lt;li&gt;Система работает или внутри одной VDS или внутри частного облака. Данные никуда не уходят и обмен мгновенный (локальная сеть).&lt;/li&gt;&lt;li&gt;Анонимайзеру не нужно поддерживать провайдеров LLM, он только шифрует и восстанавливвает данные.&lt;/li&gt;&lt;li&gt;С провайдерами LLM общается главная система, что позволяет это делать централизованно и не нужно передавать в анонимайзер лишние данные.&lt;/li&gt;&lt;li&gt;Присутствует только один медленный канал связи (WAN) это канал с провайдером LLM.&amp;nbsp;&lt;/li&gt;&lt;/ul&gt;&lt;/div&gt;" style="text;html=1;align=left;verticalAlign=middle;whiteSpace=wrap;rounded=0;" vertex="1" parent="1">
          <mxGeometry x="40" y="670" width="480" height="130" as="geometry" />
        </mxCell>
        <mxCell id="jhh1zoFwaYAyAGupVXI--50" value="&lt;ul&gt;&lt;li&gt;Анонимайзер не полностью автономен, он не можен напрямую общаться с LLM.&lt;/li&gt;&lt;/ul&gt;" style="text;html=1;align=left;verticalAlign=middle;whiteSpace=wrap;rounded=0;" vertex="1" parent="1">
          <mxGeometry x="610" y="680" width="500" height="20" as="geometry" />
        </mxCell>
        <mxCell id="jhh1zoFwaYAyAGupVXI--51" value="&lt;font style=&quot;font-size: 14px;&quot;&gt;&lt;u&gt;Плюсы&lt;/u&gt;&lt;/font&gt;" style="text;html=1;align=center;verticalAlign=middle;whiteSpace=wrap;rounded=0;" vertex="1" parent="1">
          <mxGeometry x="80" y="640" width="60" height="30" as="geometry" />
        </mxCell>
        <mxCell id="jhh1zoFwaYAyAGupVXI--52" value="&lt;font style=&quot;font-size: 14px;&quot;&gt;&lt;u&gt;Минусы&lt;/u&gt;&lt;/font&gt;" style="text;html=1;align=center;verticalAlign=middle;whiteSpace=wrap;rounded=0;" vertex="1" parent="1">
          <mxGeometry x="650" y="640" width="60" height="30" as="geometry" />
        </mxCell>
        <mxCell id="jhh1zoFwaYAyAGupVXI--63" style="edgeStyle=orthogonalEdgeStyle;rounded=0;orthogonalLoop=1;jettySize=auto;html=1;exitX=0;exitY=0.5;exitDx=0;exitDy=0;entryX=1.008;entryY=0.167;entryDx=0;entryDy=0;entryPerimeter=0;" edge="1" parent="1" source="jhh1zoFwaYAyAGupVXI--64" target="jhh1zoFwaYAyAGupVXI--14">
          <mxGeometry relative="1" as="geometry">
            <mxPoint x="460" y="295" as="targetPoint" />
          </mxGeometry>
        </mxCell>
        <mxCell id="jhh1zoFwaYAyAGupVXI--56" value="" style="rounded=0;whiteSpace=wrap;html=1;" vertex="1" parent="1">
          <mxGeometry x="360" y="160" width="440" height="420" as="geometry" />
        </mxCell>
        <mxCell id="jhh1zoFwaYAyAGupVXI--60" value="&lt;font style=&quot;font-size: 18px;&quot;&gt;SMAILP&lt;/font&gt;" style="text;html=1;align=center;verticalAlign=middle;whiteSpace=wrap;rounded=0;" vertex="1" parent="1">
          <mxGeometry x="685" y="170" width="115" height="30" as="geometry" />
        </mxCell>
        <mxCell id="jhh1zoFwaYAyAGupVXI--64" value="Формируем запрос на анонимизацию данных перед отправкой в LLM" style="rounded=0;whiteSpace=wrap;html=1;" vertex="1" parent="1">
          <mxGeometry x="360" y="190" width="150" height="70" as="geometry" />
        </mxCell>
        <mxCell id="jhh1zoFwaYAyAGupVXI--67" style="edgeStyle=orthogonalEdgeStyle;rounded=0;orthogonalLoop=1;jettySize=auto;html=1;exitX=1;exitY=0.5;exitDx=0;exitDy=0;entryX=0;entryY=0.5;entryDx=0;entryDy=0;" edge="1" parent="1" source="jhh1zoFwaYAyAGupVXI--65" target="jhh1zoFwaYAyAGupVXI--66">
          <mxGeometry relative="1" as="geometry" />
        </mxCell>
        <mxCell id="jhh1zoFwaYAyAGupVXI--65" value="Получаем ответ с анонимизированными данными" style="rounded=0;whiteSpace=wrap;html=1;" vertex="1" parent="1">
          <mxGeometry x="360" y="275" width="150" height="70" as="geometry" />
        </mxCell>
        <mxCell id="jhh1zoFwaYAyAGupVXI--66" value="Отправляем запрос в LLM, используя внутренние механизмы выбора провайдеров, моделей и их настроек." style="rounded=0;whiteSpace=wrap;html=1;" vertex="1" parent="1">
          <mxGeometry x="650" y="267.5" width="150" height="85" as="geometry" />
        </mxCell>
        <mxCell id="jhh1zoFwaYAyAGupVXI--72" style="edgeStyle=orthogonalEdgeStyle;rounded=0;orthogonalLoop=1;jettySize=auto;html=1;exitX=0;exitY=0.5;exitDx=0;exitDy=0;entryX=1;entryY=0.5;entryDx=0;entryDy=0;" edge="1" parent="1" source="jhh1zoFwaYAyAGupVXI--68" target="jhh1zoFwaYAyAGupVXI--69">
          <mxGeometry relative="1" as="geometry" />
        </mxCell>
        <mxCell id="jhh1zoFwaYAyAGupVXI--68" value="Получаем ответ от LLM" style="rounded=0;whiteSpace=wrap;html=1;" vertex="1" parent="1">
          <mxGeometry x="650" y="380" width="150" height="90" as="geometry" />
        </mxCell>
        <mxCell id="jhh1zoFwaYAyAGupVXI--73" style="edgeStyle=orthogonalEdgeStyle;rounded=0;orthogonalLoop=1;jettySize=auto;html=1;exitX=0;exitY=0.5;exitDx=0;exitDy=0;entryX=0.992;entryY=0.678;entryDx=0;entryDy=0;entryPerimeter=0;" edge="1" parent="1" source="jhh1zoFwaYAyAGupVXI--69" target="jhh1zoFwaYAyAGupVXI--14">
          <mxGeometry relative="1" as="geometry">
            <Array as="points">
              <mxPoint x="330" y="397" />
              <mxPoint x="330" y="342" />
            </Array>
          </mxGeometry>
        </mxCell>
        <mxCell id="jhh1zoFwaYAyAGupVXI--69" value="Формируем запрос на восстановление данных полученных из LLM" style="rounded=0;whiteSpace=wrap;html=1;" vertex="1" parent="1">
          <mxGeometry x="360" y="362" width="150" height="70" as="geometry" />
        </mxCell>
        <mxCell id="jhh1zoFwaYAyAGupVXI--71" style="edgeStyle=orthogonalEdgeStyle;rounded=0;orthogonalLoop=1;jettySize=auto;html=1;exitX=0;exitY=0.5;exitDx=0;exitDy=0;entryX=1;entryY=0.5;entryDx=0;entryDy=0;" edge="1" parent="1" source="jhh1zoFwaYAyAGupVXI--70" target="jhh1zoFwaYAyAGupVXI--64">
          <mxGeometry relative="1" as="geometry" />
        </mxCell>
        <mxCell id="jhh1zoFwaYAyAGupVXI--70" value="Бизнес процесс" style="ellipse;whiteSpace=wrap;html=1;" vertex="1" parent="1">
          <mxGeometry x="540" y="185" width="120" height="80" as="geometry" />
        </mxCell>
        <mxCell id="jhh1zoFwaYAyAGupVXI--76" style="edgeStyle=orthogonalEdgeStyle;rounded=0;orthogonalLoop=1;jettySize=auto;html=1;exitX=1;exitY=0.5;exitDx=0;exitDy=0;entryX=0.5;entryY=1;entryDx=0;entryDy=0;" edge="1" parent="1" source="jhh1zoFwaYAyAGupVXI--75" target="jhh1zoFwaYAyAGupVXI--70">
          <mxGeometry relative="1" as="geometry" />
        </mxCell>
        <mxCell id="jhh1zoFwaYAyAGupVXI--75" value="Получаем ответ с восстановленными данными" style="rounded=0;whiteSpace=wrap;html=1;" vertex="1" parent="1">
          <mxGeometry x="360" y="452" width="150" height="70" as="geometry" />
        </mxCell>
        <mxCell id="jhh1zoFwaYAyAGupVXI--77" value="" style="shape=flexArrow;endArrow=classic;html=1;rounded=0;exitX=1;exitY=0.5;exitDx=0;exitDy=0;entryX=0;entryY=0.25;entryDx=0;entryDy=0;" edge="1" parent="1" source="jhh1zoFwaYAyAGupVXI--66" target="jhh1zoFwaYAyAGupVXI--15">
          <mxGeometry width="50" height="50" relative="1" as="geometry">
            <mxPoint x="620" y="470" as="sourcePoint" />
            <mxPoint x="670" y="420" as="targetPoint" />
          </mxGeometry>
        </mxCell>
        <mxCell id="jhh1zoFwaYAyAGupVXI--78" value="" style="shape=flexArrow;endArrow=classic;html=1;rounded=0;exitX=0;exitY=0.75;exitDx=0;exitDy=0;entryX=0.987;entryY=0.5;entryDx=0;entryDy=0;entryPerimeter=0;" edge="1" parent="1" source="jhh1zoFwaYAyAGupVXI--15" target="jhh1zoFwaYAyAGupVXI--68">
          <mxGeometry width="50" height="50" relative="1" as="geometry">
            <mxPoint x="810" y="325" as="sourcePoint" />
            <mxPoint x="1010" y="260" as="targetPoint" />
          </mxGeometry>
        </mxCell>
        <mxCell id="jhh1zoFwaYAyAGupVXI--27" value="&lt;font style=&quot;font-size: 18px;&quot;&gt;WAN&lt;/font&gt;" style="ellipse;shape=cloud;whiteSpace=wrap;html=1;" vertex="1" parent="1">
          <mxGeometry x="870" y="63" width="90" height="527" as="geometry" />
        </mxCell>
        <mxCell id="jhh1zoFwaYAyAGupVXI--80" value="API" style="text;html=1;align=center;verticalAlign=middle;whiteSpace=wrap;rounded=0;" vertex="1" parent="1">
          <mxGeometry x="300" y="250" width="60" height="30" as="geometry" />
        </mxCell>
        <mxCell id="jhh1zoFwaYAyAGupVXI--82" value="API" style="text;html=1;align=center;verticalAlign=middle;whiteSpace=wrap;rounded=0;" vertex="1" parent="1">
          <mxGeometry x="300" y="432" width="60" height="30" as="geometry" />
        </mxCell>
      </root>
    </mxGraphModel>
  </diagram>
</mxfile>
